<svg xmlns="http://www.w3.org/2000/svg" width="98.807mm" height="32.999mm" viewBox="0 0 280.083 93.542"><title>pidrone</title><text transform="translate(129.907 56.674)" font-size="36" fill="#a40b5d" font-family="CenturyGothic-Bold, Century Gothic" font-weight="700">pidrone</text><polygon points="82.615 42.249 77.696 50.825 68.519 32.759 78.095 33.35 74.813 18.705 105.747 19.783 110.074 28.3 92.507 53.536 82.615 42.249" fill="#a40b5d"/><polygon points="59.933 27.871 68.509 32.79 50.444 41.967 51.035 32.392 36.389 35.673 37.468 4.74 45.985 0.413 71.221 17.979 59.933 27.871" fill="#a40b5d"/><polygon points="68.206 64.947 59.63 60.028 77.695 50.851 77.105 60.427 91.75 57.145 90.672 88.079 82.155 92.405 56.919 74.839 68.206 64.947" fill="#a40b5d"/><polygon points="45.532 50.546 50.451 41.97 59.628 60.035 50.052 59.444 53.334 74.09 22.4 73.011 18.073 64.494 35.64 39.258 45.532 50.546" fill="#a40b5d"/></svg>